<?xml version="1.0" encoding="iso-8859-1"?>
<!-- Generator: Adobe Illustrator 19.0.0, SVG Export Plug-In . SVG Version: 6.00 Build 0)  -->
<svg version="1.1" id="Layer_1" xmlns="http://www.w3.org/2000/svg" xmlns:xlink="http://www.w3.org/1999/xlink" x="0px" y="0px"
	 viewBox="0 0 512 512" style="enable-background:new 0 0 512 512;" xml:space="preserve">
<path style="fill:#314E55;" d="M494.164,428.939c-5.945-8.205-16.406-11.918-29.401-10.369l-36.24,4.236h-7.613
	c9.124-9.988,14.741-23.216,14.741-37.762v-5.822c0-15.292-6-28.677-16.892-37.671c-10.919-9.012-25.23-12.367-40.426-9.48
	c-12.464,2.521-27.636,5.29-30.346,5.391c-2.84,0-6.207,0.027-9.815,0.065c4.766-10.828,4.807-24.902-0.242-40.027l-8.361-25.065
	c-8.155-24.442-61.851-102.166-80.732-102.166c-9.337,0-13.93,9.388-20.88,23.598c-4.992,10.204-11.199,22.901-18.611,30.593
	c-6.509,6.757-19.033,6.812-24.148,6.161c-10.882-3.667-21.705-2.274-30.57,3.942c-12.322,8.627-19.39,25.431-19.39,46.096
	c0,14.102,0.057,35.422,7.173,50.833c-20.996-1.938-34.336-3.495-34.676-3.536c-15.668-1.559-28.957,3.062-37.309,13.147
	c-8.324,10.03-10.451,23.855-5.954,39.046c0,0,0.623,1.953,1.1,3.594c-0.096,0.284-0.183,0.523-0.229,0.651
	c-4.48,14.175-2.95,27.721,4.167,38.413H58.362c-24.905,0-45.165,20.298-45.165,45.244v0.853c0,12.193,4.777,23.396,13.454,31.547
	C34.635,507.948,44.991,512,56.093,512c0.953,0,1.912-0.037,2.87-0.092c1.394-0.092,140.048-9.094,196.114-9.094
	c48.86,0,171.09,8.774,172.355,8.865c23.612,1.549,49.997-13.972,59.958-35.452l7.435-16.053
	C500.348,448.256,500.114,437.163,494.164,428.939z"/>
<g>
	<path style="fill:#C59981;" d="M169.811,331.797c-11.222-0.834-15.796-15.65-15.796-51.138c0-14.247,4.254-25.725,11.382-30.721
		c4.084-2.851,8.92-3.3,14.37-1.329c0.55,0.202,1.114,0.348,1.691,0.449c1.068,0.156,26.307,4.089,41.411-11.57
		c9.457-9.819,16.387-23.983,21.952-35.369c1.728-3.53,3.869-7.912,5.602-10.956c14.723,12.459,53.614,64.065,61.333,87.214
		l8.361,25.065c4.185,12.532,3.819,23.699-0.976,29.86c-2.047,2.631-4.913,4.141-8.499,4.606
		c-26.984,0.383-60.562,0.732-84.453-0.435c-18.102-0.882-35.382-2.029-50.946-3.217
		C173.757,332.934,171.946,331.956,169.811,331.797z"/>
	<path style="fill:#C59981;" d="M84.88,353.085c3.612-4.364,9.571-6.665,16.928-6.665c1.251,0,2.549,0.064,3.878,0.202
		c0.545,0.064,55.346,6.472,119.59,9.608c22.835,1.115,53.989,0.881,80.207,0.523c0.949,0.07,1.886,0.11,2.813,0.11
		c0.578,0,1.099-0.146,1.668-0.171c3.252-0.047,6.46-0.094,9.498-0.14c11.391-0.165,21.329-0.312,28.526-0.312
		c4.992,0,25.482-4.025,33.971-5.739c9.502-1.852,18.317,0.138,24.84,5.519c6.495,5.372,10.076,13.614,10.076,23.204v5.822
		c0,20.628-16.841,37.405-37.542,37.405H107.066c-9.466,0-17.089-3.282-21.457-9.25c-4.359-5.95-5.198-14.174-2.471-22.819
		c1.302-3.649,1.54-5.042,1.54-6.482c0-1.284,0-2.063-2.242-9.223C79.815,365.819,80.681,358.145,84.88,353.085z"/>
	<path style="fill:#C59981;" d="M477.791,452.281l-7.435,16.044c-6.688,14.43-25.739,25.642-41.613,24.625
		c-5.042-0.367-124.132-8.911-173.666-8.911c-56.675,0-195.935,9.04-197.306,9.131c-6.945,0.449-13.408-1.843-18.262-6.399
		c-4.859-4.565-7.536-10.919-7.536-17.868v-0.853c0-14.595,11.84-26.467,26.39-26.467h370.706c0.362,0,0.729-0.018,1.091-0.064
		l36.786-4.3c5.799-0.669,10.282,0.348,12.01,2.732C480.692,442.352,480.257,446.963,477.791,452.281z"/>
</g>
<g>
	<path style="fill:#314E55;" d="M179.171,152.465c-1.458,5.666-5.73,8.132-5.748,8.141c-4.621,2.356-6.459,8.013-4.107,12.633
		c1.659,3.255,4.955,5.125,8.375,5.125c1.43,0,2.888-0.33,4.249-1.018c1.169-0.596,11.515-6.197,15.237-19.546
		c3.314-11.882,0.243-25.542-9.122-40.614c-5.304-8.544-7.032-15.787-5.125-21.526c2.622-7.93,11.657-11.662,11.992-11.799
		c4.818-1.843,7.247-7.224,5.437-12.065c-1.824-4.85-7.224-7.298-12.088-5.491c-1.783,0.669-17.57,7.004-23.08,23.195
		c-3.86,11.341-1.531,23.992,6.917,37.588C178.392,137.2,180.835,145.974,179.171,152.465z"/>
	<rect x="125.851" y="18.771" style="fill:#314E55;" width="18.776" height="37.551"/>
	<rect x="341.772" y="37.547" style="fill:#314E55;" width="18.776" height="37.551"/>
	<rect x="294.833" y="122.038" style="fill:#314E55;" width="18.776" height="37.551"/>
	<path style="fill:#314E55;" d="M385.704,265.119c-1.458,5.666-5.73,8.132-5.748,8.141c-4.621,2.356-6.459,8.013-4.107,12.633
		c1.659,3.255,4.955,5.125,8.375,5.125c1.43,0,2.888-0.33,4.249-1.018c1.169-0.596,11.515-6.197,15.237-19.546
		c3.314-11.882,0.243-25.542-9.122-40.614c-5.304-8.544-7.032-15.787-5.125-21.526c2.622-7.93,11.657-11.662,11.992-11.799
		c4.818-1.843,7.247-7.224,5.437-12.065c-1.82-4.85-7.22-7.289-12.088-5.491c-1.783,0.669-17.57,7.004-23.08,23.195
		c-3.86,11.341-1.531,23.992,6.917,37.588C384.925,249.855,387.368,258.628,385.704,265.119z"/>
	<path style="fill:#314E55;" d="M212.029,86.75c-1.458,5.666-5.73,8.132-5.748,8.141c-4.621,2.356-6.459,8.013-4.107,12.633
		c1.659,3.255,4.955,5.125,8.375,5.125c1.43,0,2.888-0.33,4.249-1.018c1.169-0.596,11.515-6.197,15.237-19.546
		c3.314-11.882,0.243-25.542-9.122-40.614c-5.304-8.544-7.032-15.787-5.125-21.526c2.622-7.93,11.657-11.662,11.992-11.799
		c4.818-1.843,7.247-7.224,5.437-12.065c-1.825-4.85-7.224-7.289-12.088-5.492c-1.783,0.669-17.57,7.004-23.08,23.195
		c-3.86,11.341-1.531,23.992,6.917,37.588C211.249,71.485,213.693,80.259,212.029,86.75z"/>
</g>
<g>
</g>
<g>
</g>
<g>
</g>
<g>
</g>
<g>
</g>
<g>
</g>
<g>
</g>
<g>
</g>
<g>
</g>
<g>
</g>
<g>
</g>
<g>
</g>
<g>
</g>
<g>
</g>
<g>
</g>
</svg>
