<?xml version="1.0" encoding="iso-8859-1"?>
<!-- Generator: Adobe Illustrator 19.0.0, SVG Export Plug-In . SVG Version: 6.00 Build 0)  -->
<svg version="1.1" id="Layer_1" xmlns="http://www.w3.org/2000/svg" xmlns:xlink="http://www.w3.org/1999/xlink" x="0px" y="0px"
	 viewBox="0 0 511.982 511.982" style="enable-background:new 0 0 511.982 511.982;" xml:space="preserve">
<rect x="149.991" y="17" style="fill:#FC6E51;" width="208.99" height="140"/>
<polygon style="fill:#FFCE54;" points="379.485,343.987 302.99,326.988 262.991,261.99 209.993,326.488 141.496,341.487 
	189.494,408.484 178.494,491.481 255.991,459.482 332.988,491.481 325.988,409.484 "/>
<path d="M191.931,53.342c5.89,0,10.656-4.781,10.656-10.687c0-5.875-4.766-10.656-10.656-10.656
	c-5.891,0-10.671,4.781-10.671,10.656C181.26,48.561,186.041,53.342,191.931,53.342z"/>
<path d="M234.586,53.342c5.891,0,10.672-4.781,10.672-10.687c0-5.875-4.781-10.656-10.672-10.656
	c-5.89,0-10.656,4.781-10.656,10.656C223.93,48.561,228.696,53.342,234.586,53.342z"/>
<path d="M277.256,53.342c5.891,0,10.672-4.781,10.672-10.687c0-5.875-4.781-10.656-10.672-10.656
	c-5.89,0-10.671,4.781-10.671,10.656C266.585,48.561,271.366,53.342,277.256,53.342z"/>
<path d="M319.926,53.342c5.891,0,10.656-4.781,10.656-10.687c0-5.875-4.766-10.656-10.656-10.656s-10.671,4.781-10.671,10.656
	C309.255,48.561,314.036,53.342,319.926,53.342z"/>
<path d="M191.931,117.339c-5.891,0-10.671,4.766-10.671,10.656s4.781,10.656,10.671,10.656s10.656-4.766,10.656-10.656
	C202.587,122.105,197.822,117.339,191.931,117.339z"/>
<path d="M234.586,117.339c-5.89,0-10.656,4.766-10.656,10.656s4.766,10.656,10.656,10.656c5.891,0,10.672-4.766,10.672-10.656
	S240.476,117.339,234.586,117.339z"/>
<path d="M277.256,117.339c-5.89,0-10.671,4.766-10.671,10.656s4.781,10.656,10.671,10.656c5.891,0,10.672-4.766,10.672-10.656
	S283.146,117.339,277.256,117.339z"/>
<path d="M319.926,117.339c-5.89,0-10.671,4.766-10.671,10.656s4.781,10.656,10.671,10.656c5.891,0,10.656-4.766,10.656-10.656
	S325.816,117.339,319.926,117.339z"/>
<path d="M213.259,74.654c-5.89,0-10.671,4.781-10.671,10.687c0,5.875,4.781,10.656,10.671,10.656s10.671-4.781,10.671-10.656
	C223.93,79.435,219.149,74.654,213.259,74.654z"/>
<path d="M266.585,85.341c0-5.906-4.766-10.687-10.656-10.687c-5.891,0-10.671,4.781-10.671,10.687
	c0,5.875,4.781,10.656,10.671,10.656C261.819,95.997,266.585,91.216,266.585,85.341z"/>
<path d="M298.584,95.997c5.891,0,10.671-4.781,10.671-10.656c0-5.906-4.78-10.687-10.671-10.687s-10.656,4.781-10.656,10.687
	C287.928,91.216,292.693,95.997,298.584,95.997z"/>
<path d="M400.72,339.801c-1.266-3.844-4.594-6.672-8.625-7.25l-87.433-12.719l-33.437-67.748
	c9.937-5.437,16.702-15.984,16.702-28.093c0-13.905-8.922-25.765-21.343-30.155V170.65h106.667c5.891,0,10.672-4.766,10.672-10.656
	s-4.781-10.656-10.672-10.656V21.343c5.891,0,10.672-4.781,10.672-10.687C383.923,4.781,379.142,0,373.251,0H138.59
	c-5.891,0-10.656,4.781-10.656,10.656c0,5.906,4.765,10.687,10.656,10.687v127.995c-5.891,0-10.656,4.766-10.656,10.656
	s4.765,10.656,10.656,10.656h106.668v23.187c-12.406,4.39-21.328,16.25-21.328,30.155c0,12.156,6.797,22.734,16.796,28.155
	l-33.405,67.685l-87.45,12.719c-4.016,0.578-7.359,3.406-8.609,7.25c-1.25,3.874-0.203,8.108,2.703,10.937l63.264,61.685
	l-14.937,87.091c-0.672,4,0.969,8.046,4.25,10.437c1.859,1.344,4.062,2.031,6.266,2.031c1.703,0,3.406-0.406,4.969-1.219
	l78.214-41.125l78.2,41.123c0.031,0,0.062,0.016,0.078,0.031c0.078,0.031,0.156,0.062,0.234,0.094
	c0.281,0.156,0.578,0.281,0.891,0.406c0.047,0,0.094,0.031,0.141,0.047c0.344,0.125,0.688,0.234,1.047,0.312
	c0.062,0.016,0.141,0.047,0.203,0.047c0.359,0.094,0.719,0.156,1.078,0.188c0.062,0.016,0.125,0.031,0.172,0.031
	c0.359,0.031,0.719,0.062,1.062,0.062c0.031,0,0.047,0,0.078,0l0,0c2.218,0,4.405-0.688,6.249-2.031
	c3.297-2.391,4.938-6.437,4.25-10.437l-14.937-87.091l63.278-61.685C400.923,347.909,401.97,343.675,400.72,339.801z
	 M159.932,21.343h191.992v127.995H159.932V21.343z M296.037,340.144l45.7,6.64l-75.09,22.828l-0.031-78.654l21.39,43.343
	C289.568,337.457,292.568,339.644,296.037,340.144z M255.929,213.336c5.875,0,10.656,4.781,10.656,10.656
	s-4.781,10.656-10.656,10.656c-5.891,0-10.671-4.781-10.671-10.656S250.038,213.336,255.929,213.336z M215.93,340.144
	c3.484-0.5,6.484-2.688,8.031-5.844l21.312-43.187l0.047,78.482l-75.091-22.812L215.93,340.144z M160.214,366.05l78.513,23.842
	l-47.467,66.966l7.953-46.357c0.594-3.453-0.562-6.983-3.078-9.452L160.214,366.05z M251.023,448.138l-43.748,23l48.716-68.715
	l48.717,68.716l-43.765-23C257.85,446.513,254.132,446.513,251.023,448.138z M312.77,410.5l7.937,46.357l-47.466-66.966
	l78.512-23.842l-35.92,34.998C313.317,403.516,312.177,407.047,312.77,410.5z"/>
<g>
</g>
<g>
</g>
<g>
</g>
<g>
</g>
<g>
</g>
<g>
</g>
<g>
</g>
<g>
</g>
<g>
</g>
<g>
</g>
<g>
</g>
<g>
</g>
<g>
</g>
<g>
</g>
<g>
</g>
</svg>
